:SAMPLES-PER-SECOND 30
:FRAME-RANGE 1-3549
:FULLY-SPECIFIED
:DEGREES
1442
root  17.2073 39.3816 -68.5778 -173.115 -74.3531 175.024
RightUpLeg  -4.77037 -6.00589 1.74431
RightLeg  24.2475 -9.27444 -4.75489
RightFoot  -17.3169 0.0724865 3.63582
RightToes  1.218e-010 1.26228e-014 -6.01869e-014
Spine  -5.66032 2.93001 4.63413
Spine1  8.36532 3.54511 -3.23254
HEad  13.1488 21.0428 -1.96137
LeftShoulder1  0.937008 -1.44792 -12.9219
LeftArm  -17.5917 -11.6224 -28.4013
LeftForeArm  84.1889 -77.1947 -38.9594
LeftHand  0.543476 9.49483 15.9185
RightShoulder  1.7266 4.72987 14.7261
RightArm  -14.6813 35.8404 39.7866
RightForeArm  69.9305 66.9531 18.8583
RightHand  1.27335 -11.6659 -23.4497
LeftUpLeg  -19.6624 -5.00452 -2.47953
LeftLeg  14.8132 1.60163 1.16764
LeftFoot  0.262652 0.214936 -2.13145
LeftToes  -1.43952e-010 7.51141e-011 -1.22592e-011
1443
root  16.679 39.1898 -68.7224 -170.933 -74.9139 172.013
RightUpLeg  -6.35771 -6.90236 0.462053
RightLeg  31.0395 -7.53901 -5.10685
RightFoot  -18.0304 0.204819 5.59351
RightToes  1.218e-010 1.26228e-014 -6.01869e-014
Spine  -5.44668 2.90256 3.52169
Spine1  8.42687 3.62056 -3.62366
HEad  12.4942 20.501 -1.90191
LeftShoulder1  0.96796 -1.67109 -12.6335
LeftArm  -19.7871 -12.57 -27.2283
LeftForeArm  90.8464 -78.6641 -45.4824
LeftHand  0.609834 9.84764 16.3662
RightShoulder  1.75051 4.89722 14.5677
RightArm  -16.1913 36.1145 39.6841
RightForeArm  72.3683 69.5254 21.7522
RightHand  1.39508 -11.9166 -24.6003
LeftUpLeg  -19.4287 -5.99252 -3.33697
LeftLeg  17.5499 1.829 1.11039
LeftFoot  -1.08083 0.0916966 -0.948975
LeftToes  -1.43952e-010 7.51141e-011 -1.22592e-011
1444
root  16.1822 39.0649 -68.8446 -169.673 -75.0465 170.03
RightUpLeg  -8.44731 -8.04615 -1.00453
RightLeg  38.073 -4.55022 -4.07905
RightFoot  -17.001 0.268715 7.76129
RightToes  1.218e-010 1.26228e-014 -6.01869e-014
Spine  -5.30583 3.00277 2.88319
Spine1  8.52411 3.78377 -4.09111
HEad  12.2969 20.1583 -1.98378
LeftShoulder1  0.955704 -1.62443 -12.5621
LeftArm  -21.6283 -13.5213 -26.5236
LeftForeArm  96.2692 -79.6169 -51.491
LeftHand  0.63379 10.0228 16.3525
RightShoulder  1.74691 4.94852 14.3744
RightArm  -17.0983 36.8933 40.1296
RightForeArm  74.1375 71.2041 24.1168
RightHand  1.41231 -11.9325 -24.825
LeftUpLeg  -18.8322 -5.97556 -4.08641
LeftLeg  19.3452 1.7028 1.06984
LeftFoot  -2.02262 -0.00224126 0.17728
LeftToes  -1.43952e-010 7.51141e-011 -1.22592e-011
1445
root  15.7017 38.9969 -68.9579 -168.242 -74.8347 168.048
RightUpLeg  -10.772 -8.78793 -2.73669
RightLeg  44.4926 -1.73517 -2.12899
RightFoot  -14.6498 0.163666 9.09834
RightToes  1.218e-010 1.26228e-014 -6.01869e-014
Spine  -5.44103 3.14471 2.46649
Spine1  8.75275 4.01409 -4.66422
HEad  12.5305 20.0518 -2.08624
LeftShoulder1  0.935668 -1.49241 -12.6895
LeftArm  -23.1411 -14.3462 -25.4062
LeftForeArm  103.264 -80.4055 -57.7356
LeftHand  0.621714 10.1056 15.8068
RightShoulder  1.74856 5.03865 14.1459
RightArm  -17.5902 37.909 40.8895
RightForeArm  76.8658 72.5001 26.126
RightHand  1.44739 -12.1397 -24.6644
LeftUpLeg  -18.005 -6.12491 -4.85356
LeftLeg  20.3885 2.04082 1.24944
LeftFoot  -3.00291 -0.0563822 1.02212
LeftToes  -1.43952e-010 7.51141e-011 -1.22592e-011
1446
root  15.2571 38.9252 -69.0993 -166.521 -74.4965 165.87
RightUpLeg  -12.5033 -8.70829 -4.50394
RightLeg  48.4072 -0.704799 -1.18491
RightFoot  -13.8572 0.121647 9.81087
RightToes  1.218e-010 1.26228e-014 -6.01869e-014
Spine  -5.40737 3.25485 1.9013
Spine1  8.75267 4.20802 -5.29654
HEad  12.5639 20.0892 -2.54642
LeftShoulder1  0.900784 -1.35475 -12.4983
LeftArm  -24.5685 -15.146 -24.08
LeftForeArm  110.299 -80.9885 -63.8863
LeftHand  0.704595 10.8027 15.5771
RightShoulder  1.75318 5.18804 13.8017
RightArm  -18.1233 39.0624 41.4876
RightForeArm  80.1512 73.8597 28.6077
RightHand  1.49004 -12.5744 -23.8947
LeftUpLeg  -17.29 -6.01604 -5.63558
LeftLeg  21.4034 2.17123 1.37473
LeftFoot  -4.23329 -0.0442882 1.12404
LeftToes  -1.43952e-010 7.51141e-011 -1.22592e-011
1447
root  14.8251 38.9604 -69.268 -166.931 -74.4508 166.048
RightUpLeg  -13.0475 -7.89777 -5.51524
RightLeg  48.3911 -1.40537 -2.0288
RightFoot  -14.9177 0.189039 9.28523
RightToes  1.218e-010 1.26228e-014 -6.01869e-014
Spine  -5.53564 3.4012 2.19005
Spine1  8.76406 4.41456 -5.72087
HEad  12.1085 20.1483 -3.02215
LeftShoulder1  0.885843 -1.35114 -12.1601
LeftArm  -26.0624 -15.973 -22.4822
LeftForeArm  117.084 -81.4192 -70.7583
LeftHand  0.719116 11.0946 15.1096
RightShoulder  1.76129 5.23689 13.7772
RightArm  -19.0525 40.618 40.7804
RightForeArm  83.1953 74.9762 31.0313
RightHand  1.54271 -12.7967 -23.981
LeftUpLeg  -16.3556 -5.98769 -5.63446
LeftLeg  21.6601 2.24536 1.43974
LeftFoot  -5.03385 -0.0395046 1.26753
LeftToes  -1.43952e-010 7.51141e-011 -1.22592e-011
1448
root  14.4108 39.0238 -69.4589 -167.813 -74.7005 166.872
RightUpLeg  -12.7663 -6.67555 -6.36249
RightLeg  45.3847 -3.06973 -3.63472
RightFoot  -16.3685 0.259754 8.43673
RightToes  1.218e-010 1.26228e-014 -6.01869e-014
Spine  -5.8039 3.47372 2.64193
Spine1  8.73978 4.49202 -5.87933
HEad  11.485 20.0587 -3.58694
LeftShoulder1  0.858607 -1.3225 -11.6386
LeftArm  -28.0511 -17.5158 -20.6118
LeftForeArm  123.572 -81.6908 -76.904
LeftHand  0.750692 11.5602 14.6022
RightShoulder  1.72976 5.34892 13.0807
RightArm  -20.891 42.3257 39.6814
RightForeArm  86.4528 75.9449 33.4518
RightHand  1.61407 -13.047 -24.2401
LeftUpLeg  -15.478 -6.38316 -5.34566
LeftLeg  21.6601 2.46655 1.56862
LeftFoot  -5.73353 -0.0235223 1.18537
LeftToes  -1.43952e-010 7.51141e-011 -1.22592e-011
1449
root  14.0019 39.1069 -69.6804 -168.729 -75.3248 167.755
RightUpLeg  -11.4998 -4.43293 -7.22408
RightLeg  39.9579 -4.48741 -4.29072
RightFoot  -17.7179 0.305642 7.63657
RightToes  1.218e-010 1.26228e-014 -6.01869e-014
Spine  -6.20888 3.4718 3.09735
Spine1  8.72335 4.4807 -5.88662
HEad  10.9437 20.0802 -3.70104
LeftShoulder1  0.8695 -1.51021 -11.088
LeftArm  -30.666 -19.2221 -18.1061
LeftForeArm  130.826 -81.8594 -84.3296
LeftHand  0.753467 11.8502 14.0348
RightShoulder  1.68292 5.44816 12.2373
RightArm  -23.4313 43.9752 38.5336
RightForeArm  91.4404 77.1038 36.8254
RightHand  1.79873 -13.7503 -24.6791
LeftUpLeg  -14.4977 -6.9329 -4.93073
LeftLeg  21.4109 2.45944 1.57721
LeftFoot  -6.30933 -0.0128358 1.1566
LeftToes  -1.43952e-010 7.51141e-011 -1.22592e-011
